<svg xmlns="http://www.w3.org/2000/svg" width="64" height="64" viewBox="0 0 64 64" role="img" aria-label="Água Clara">
  <title>Água Clara</title>
  <defs>
    <linearGradient id="ac-water" x1="16" y1="10" x2="48" y2="54" gradientUnits="userSpaceOnUse">
      <stop offset="0" stop-color="#38bdf8"/>
      <stop offset="1" stop-color="#2563eb"/>
    </linearGradient>
  </defs>
  <path
    fill="url(#ac-water)"
    d="M32 6c-2.8 4.9-6.4 9.2-9.6 13.7C16.9 28 12 35.2 12 43.4 12 54.4 20.9 62 32 62s20-7.6 20-18.6c0-8.2-4.9-15.4-10.4-23.7C38.4 15.2 34.8 10.9 32 6z"
  />
  <path
    fill="#ffffff"
    opacity="0.95"
    d="M18 41.4c2.8-3.2 6.6-5.3 10.8-5.8 4.6-.6 9.2.7 12.6 3.7 1.6 1.3 3.5 2.2 5.6 2.4.4 0 .8.1 1.2.1 1 0 2-.1 2.9-.4-.9 7-7.6 12.6-16.1 12.6-8.7 0-15.7-5.8-17-13.4z"
  />
  <path
    fill="#ffffff"
    opacity="0.2"
    d="M25.3 14.8c-3 4.2-6 8.3-8.1 12.5-2.7 5.3-3.3 9.7-3.3 12.2 0 8.8 6.3 16 14.7 17.6-7.8-2.7-12.8-9.4-12.8-17.5 0-2.4.6-6.4 3.1-11.3 2-3.9 4.8-7.8 7.6-11.5.6-.8 1.2-1.6 1.8-2.4z"
  />
</svg>

